<svg preserveAspectRatio="none" width="100%" height="100%" overflow="visible" style="display: block;" viewBox="0 0 20.0139 17.9945" fill="none" xmlns="http://www.w3.org/2000/svg">
<path id="Vector" d="M8.61835 0.847494C9.1967 1.25242 9.65873 1.76019 10.007 2.27908C10.3552 1.76019 10.8172 1.25243 11.3956 0.847514C12.6399 -0.0236823 14.3653 -0.375882 16.4771 0.5337C18.7383 1.50761 19.9278 3.53212 20.0093 5.87268C20.09 8.18708 19.0974 10.7916 17.0864 13.1106C15.4807 14.9623 13.8782 16.123 12.6195 16.847C11.9905 17.2088 11.4497 17.4602 11.0411 17.6336C10.8373 17.7201 10.6671 17.7869 10.5403 17.8364L10.5188 17.8448C10.4646 17.8659 10.4226 17.8823 10.3884 17.8961C10.3613 17.907 10.3479 17.9128 10.3434 17.9148L10.3423 17.9153C10.3423 17.9153 10.3414 17.9158 10.3434 17.9148C10.1315 18.0212 9.88211 18.0209 9.67024 17.9145L9.67232 17.9155L9.67024 17.9145C9.66574 17.9125 9.65263 17.907 9.62549 17.8961C9.59106 17.8822 9.54904 17.8658 9.49422 17.8444L9.47365 17.8364C9.34686 17.7869 9.17666 17.7201 8.97281 17.6336C8.5642 17.4602 8.0234 17.2087 7.39445 16.847C6.13574 16.123 4.53323 14.9623 2.92744 13.1105C0.91648 10.7915 -0.0760768 8.18704 0.00454544 5.87264C0.0860792 3.53208 1.27562 1.50757 3.53679 0.533658C5.6486 -0.375925 7.37402 -0.0237108 8.61835 0.847494Z" fill="var(--fill-0, #A97D0E)"/>
</svg>
