<svg width="40" height="40" viewBox="0 0 40 40" fill="none" xmlns="http://www.w3.org/2000/svg">
<path d="M9.09059 31.8868C9.62996 31.8868 10.0672 31.4495 10.0672 30.9102C10.0672 30.3708 9.62996 29.9335 9.09059 29.9335C8.55122 29.9335 8.11397 30.3708 8.11397 30.9102C8.11397 31.4495 8.55122 31.8868 9.09059 31.8868Z" fill="#A97D0E"/>
<path d="M31.024 9.95306C31.5633 9.95306 32.0006 9.51581 32.0006 8.97644C32.0006 8.43707 31.5633 7.99982 31.024 7.99982C30.4846 7.99982 30.0473 8.43707 30.0473 8.97644C30.0473 9.51581 30.4846 9.95306 31.024 9.95306Z" fill="#A97D0E"/>
<path d="M28.1887 9.95306C28.7281 9.95306 29.1653 9.51581 29.1653 8.97644C29.1653 8.43707 28.7281 7.99982 28.1887 7.99982C27.6493 7.99982 27.2121 8.43707 27.2121 8.97644C27.2121 9.51581 27.6493 9.95306 28.1887 9.95306Z" fill="#A97D0E"/>
<path d="M31.024 13.1551C31.5633 13.1551 32.0006 12.7179 32.0006 12.1785C32.0006 11.6392 31.5633 11.2019 31.024 11.2019C30.4846 11.2019 30.0473 11.6392 30.0473 12.1785C30.0473 12.7179 30.4846 13.1551 31.024 13.1551Z" fill="#A97D0E"/>
<path d="M24.9871 9.95306C25.5264 9.95306 25.9637 9.51581 25.9637 8.97644C25.9637 8.43707 25.5264 7.99982 24.9871 7.99982C24.4477 7.99982 24.0104 8.43707 24.0104 8.97644C24.0104 9.51581 24.4477 9.95306 24.9871 9.95306Z" fill="#A97D0E"/>
<path d="M18.583 9.95306C19.1224 9.95306 19.5596 9.51581 19.5596 8.97644C19.5596 8.43707 19.1224 7.99982 18.583 7.99982C18.0436 7.99982 17.6064 8.43707 17.6064 8.97644C17.6064 9.51581 18.0436 9.95306 18.583 9.95306Z" fill="#A97D0E"/>
<path d="M21.7847 9.95306C22.324 9.95306 22.7613 9.51581 22.7613 8.97644C22.7613 8.43707 22.324 7.99982 21.7847 7.99982C21.2453 7.99982 20.808 8.43707 20.808 8.97644C20.808 9.51581 21.2453 9.95306 21.7847 9.95306Z" fill="#A97D0E"/>
<path d="M15.3806 9.95306C15.92 9.95306 16.3572 9.51581 16.3572 8.97644C16.3572 8.43707 15.92 7.99982 15.3806 7.99982C14.8412 7.99982 14.404 8.43707 14.404 8.97644C14.404 9.51581 14.8412 9.95306 15.3806 9.95306Z" fill="#A97D0E"/>
<path d="M12.1782 9.95306C12.7175 9.95306 13.1548 9.51581 13.1548 8.97644C13.1548 8.43707 12.7175 7.99982 12.1782 7.99982C11.6388 7.99982 11.2015 8.43707 11.2015 8.97644C11.2015 9.51581 11.6388 9.95306 12.1782 9.95306Z" fill="#A97D0E"/>
<path d="M8.97633 9.95306C9.51571 9.95306 9.95295 9.51581 9.95295 8.97644C9.95295 8.43707 9.51571 7.99982 8.97633 7.99982C8.43696 7.99982 7.99971 8.43707 7.99971 8.97644C7.99971 9.51581 8.43696 9.95306 8.97633 9.95306Z" fill="#A97D0E"/>
<path d="M31.024 16.3572C31.5633 16.3572 32.0006 15.9199 32.0006 15.3806C32.0006 14.8412 31.5633 14.4039 31.024 14.4039C30.4846 14.4039 30.0473 14.8412 30.0473 15.3806C30.0473 15.9199 30.4846 16.3572 31.024 16.3572Z" fill="#A97D0E"/>
<path d="M31.024 19.5593C31.5633 19.5593 32.0006 19.122 32.0006 18.5826C32.0006 18.0433 31.5633 17.606 31.024 17.606C30.4846 17.606 30.0473 18.0433 30.0473 18.5826C30.0473 19.122 30.4846 19.5593 31.024 19.5593Z" fill="#A97D0E"/>
<path d="M31.024 22.7612C31.5633 22.7612 32.0006 22.324 32.0006 21.7846C32.0006 21.2452 31.5633 20.808 31.024 20.808C30.4846 20.808 30.0473 21.2452 30.0473 21.7846C30.0473 22.324 30.4846 22.7612 31.024 22.7612Z" fill="#A97D0E"/>
<path d="M31.024 25.9633C31.5633 25.9633 32.0006 25.5261 32.0006 24.9867C32.0006 24.4473 31.5633 24.0101 31.024 24.0101C30.4846 24.0101 30.0473 24.4473 30.0473 24.9867C30.0473 25.5261 30.4846 25.9633 31.024 25.9633Z" fill="#A97D0E"/>
<path d="M31.024 31.9998C31.5633 31.9998 32.0006 31.5626 32.0006 31.0232C32.0006 30.4838 31.5633 30.0466 31.024 30.0466C30.4846 30.0466 30.0473 30.4838 30.0473 31.0232C30.0473 31.5626 30.4846 31.9998 31.024 31.9998Z" fill="#A97D0E"/>
<path d="M31.024 29.1653C31.5633 29.1653 32.0006 28.728 32.0006 28.1887C32.0006 27.6493 31.5633 27.212 31.024 27.212C30.4846 27.212 30.0473 27.6493 30.0473 28.1887C30.0473 28.728 30.4846 29.1653 31.024 29.1653Z" fill="#A97D0E"/>
<path d="M25.6262 15.465C26.1655 15.465 26.6028 15.0278 26.6028 14.4884C26.6028 13.949 26.1655 13.5118 25.6262 13.5118C25.0868 13.5118 24.6495 13.949 24.6495 14.4884C24.6495 15.0278 25.0868 15.465 25.6262 15.465Z" fill="#A97D0E"/>
<path d="M14.3048 26.7859C14.8442 26.7859 15.2814 26.3486 15.2814 25.8093C15.2814 25.2699 14.8442 24.8326 14.3048 24.8326C13.7654 24.8326 13.3282 25.2699 13.3282 25.8093C13.3282 26.3486 13.7654 26.7859 14.3048 26.7859Z" fill="#A97D0E"/>
<path d="M18.6997 22.4003C19.241 22.4003 19.6797 21.9615 19.6797 21.4203C19.6797 20.879 19.241 20.4402 18.6997 20.4402C18.1584 20.4402 17.7197 20.879 17.7197 21.4203C17.7197 21.9615 18.1584 22.4003 18.6997 22.4003Z" fill="#A97D0E"/>
<path d="M23.3186 17.7824C23.8598 17.7824 24.2986 17.3437 24.2986 16.8024C24.2986 16.2612 23.8598 15.8224 23.3186 15.8224C22.7773 15.8224 22.3385 16.2612 22.3385 16.8024C22.3385 17.3437 22.7773 17.7824 23.3186 17.7824Z" fill="#A97D0E"/>
<path d="M11.9972 29.1034C12.5385 29.1034 12.9772 28.6646 12.9772 28.1233C12.9772 27.5821 12.5385 27.1433 11.9972 27.1433C11.4559 27.1433 11.0172 27.5821 11.0172 28.1233C11.0172 28.6646 11.4559 29.1034 11.9972 29.1034Z" fill="#A97D0E"/>
<path d="M21.7019 18.4187C22.0845 18.8013 22.0845 19.421 21.7019 19.8048C21.3193 20.1887 20.6996 20.1874 20.3158 19.8048C19.9319 19.4222 19.9331 18.8026 20.3158 18.4187C20.6984 18.0349 21.318 18.0361 21.7019 18.4187Z" fill="#A97D0E"/>
<path d="M28.6305 11.4893C29.0131 11.872 29.0131 12.4916 28.6305 12.8754C28.2479 13.2593 27.6282 13.2581 27.2444 12.8754C26.8617 12.4928 26.8617 11.8732 27.2444 11.4893C27.627 11.1055 28.2466 11.1067 28.6305 11.4893Z" fill="#A97D0E"/>
<path d="M17.3099 22.8102C17.6925 23.1928 17.6925 23.8124 17.3099 24.1963C16.9273 24.5802 16.3077 24.5789 15.9238 24.1963C15.5412 23.8137 15.5412 23.1941 15.9238 22.8102C16.3064 22.4263 16.926 22.4276 17.3099 22.8102Z" fill="#A97D0E"/>
</svg>
