<svg preserveAspectRatio="none" width="100%" height="100%" overflow="visible" style="display: block;" viewBox="0 0 20 20" fill="none" xmlns="http://www.w3.org/2000/svg">
<g id="Vector">
<path fill-rule="evenodd" clip-rule="evenodd" d="M0 8.25C0 7.83579 0.335786 7.5 0.75 7.5H19.2471C19.6613 7.5 19.9971 7.83579 19.9971 8.25C19.9971 8.66421 19.6613 9 19.2471 9H0.75C0.335786 9 0 8.66421 0 8.25Z" fill="var(--fill-0, #A97D0E)"/>
<path fill-rule="evenodd" clip-rule="evenodd" d="M13.7475 0C14.1617 0 14.4975 0.335786 14.4975 0.75V4.75C14.4975 5.16421 14.1617 5.5 13.7475 5.5C13.3332 5.5 12.9975 5.16421 12.9975 4.75V0.75C12.9975 0.335786 13.3332 0 13.7475 0Z" fill="var(--fill-0, #A97D0E)"/>
<path fill-rule="evenodd" clip-rule="evenodd" d="M6.27074 0C6.68496 0 7.02074 0.335786 7.02074 0.75H5.52074C5.52074 0.335786 5.85653 0 6.27074 0ZM5.52074 0.75V4.75C5.52074 5.16421 5.85653 5.5 6.27074 5.5C6.68496 5.5 7.02074 5.16421 7.02074 4.75V0.75H5.52074Z" fill="var(--fill-0, #A97D0E)"/>
<path fill-rule="evenodd" clip-rule="evenodd" d="M0 5.75C0 3.67893 1.67893 2 3.75 2H16.25C18.3211 2 20 3.67893 20 5.75V8.29148H18.5V5.75C18.5 4.50736 17.4926 3.5 16.25 3.5H3.75C2.50736 3.5 1.5 4.50736 1.5 5.75V16.25C1.5 17.4926 2.50736 18.5 3.75 18.5H8.00006C8.41427 18.5 8.75006 18.8358 8.75006 19.25C8.75006 19.6642 8.41427 20 8.00006 20H3.75C1.67893 20 0 18.3211 0 16.25V5.75Z" fill="var(--fill-0, #A97D0E)"/>
<path fill-rule="evenodd" clip-rule="evenodd" d="M13.0645 16.3749L18.7195 10.7197C19.0124 10.4268 19.4872 10.4268 19.7801 10.7197C20.073 11.0126 20.0731 11.4874 19.7802 11.7803L14.1252 17.4356C13.8323 17.7285 13.3574 17.7285 13.0645 17.4356C12.7716 17.1427 12.7716 16.6678 13.0645 16.3749Z" fill="var(--fill-0, #A97D0E)"/>
<path fill-rule="evenodd" clip-rule="evenodd" d="M18.3447 12.1552V17.3191C18.3447 17.7333 18.0089 18.0691 17.5947 18.0691C17.1804 18.0691 16.8447 17.7333 16.8447 17.3191V13.6553L13.181 13.6554C12.7668 13.6554 12.431 13.3196 12.431 12.9054C12.431 12.4912 12.7667 12.1554 13.1809 12.1554L18.3447 12.1552Z" fill="var(--fill-0, #A97D0E)"/>
<path fill-rule="evenodd" clip-rule="evenodd" d="M14.4828 16.0173V19.25C14.4828 19.6642 14.147 20 13.7328 20C13.3186 20 12.9828 19.6642 12.9828 19.25V17.5173H11.2501C10.8359 17.5173 10.5001 17.1815 10.5001 16.7673C10.5001 16.3531 10.8359 16.0173 11.2501 16.0173H14.4828Z" fill="var(--fill-0, #A97D0E)"/>
</g>
</svg>
