<svg width="40" height="40" viewBox="18.79 18.79 40.42 40.42" fill="none" xmlns="http://www.w3.org/2000/svg">
<rect x="18.7921" y="18.7936" width="40.4129" height="40.4129" rx="20" fill="white"/>
<path d="M32.1134 47.0151C32.7355 47.0151 33.2399 46.5107 33.2399 45.8885C33.2399 45.2664 32.7355 44.762 32.1134 44.762C31.4913 44.762 30.987 45.2664 30.987 45.8885C30.987 46.5107 31.4913 47.0151 32.1134 47.0151Z" fill="#000099"/>
<path d="M34.7024 44.4222C35.3245 44.4222 35.8288 43.9178 35.8288 43.2956C35.8288 42.6735 35.3245 42.1691 34.7024 42.1691C34.0803 42.1691 33.5759 42.6735 33.5759 43.2956C33.5759 43.9178 34.0803 44.4222 34.7024 44.4222Z" fill="#000099"/>
<path d="M37.5597 41.7424C38.1818 41.7424 38.6861 41.2381 38.6861 40.6159C38.6861 39.9937 38.1818 39.4894 37.5597 39.4894C36.9376 39.4894 36.4332 39.9937 36.4332 40.6159C36.4332 41.2381 36.9376 41.7424 37.5597 41.7424Z" fill="#000099"/>
<path d="M39.8882 39.2403C40.5103 39.2403 41.0146 38.736 41.0146 38.1138C41.0146 37.4916 40.5103 36.9872 39.8882 36.9872C39.2661 36.9872 38.7617 37.4916 38.7617 38.1138C38.7617 38.736 39.2661 39.2403 39.8882 39.2403Z" fill="#000099"/>
<path d="M42.4771 36.6435C43.0992 36.6435 43.6036 36.1391 43.6036 35.5169C43.6036 34.8948 43.0992 34.3904 42.4771 34.3904C41.855 34.3904 41.3507 34.8948 41.3507 35.5169C41.3507 36.1391 41.855 36.6435 42.4771 36.6435Z" fill="#000099"/>
<path d="M45.958 33.1665C46.5801 33.1665 47.0844 32.6622 47.0844 32.04C47.0844 31.4178 46.5801 30.9135 45.958 30.9135C45.3359 30.9135 44.8315 31.4178 44.8315 32.04C44.8315 32.6622 45.3359 33.1665 45.958 33.1665Z" fill="#000099"/>
<path d="M42.4771 33.1665C43.0992 33.1665 43.6036 32.6622 43.6036 32.04C43.6036 31.4178 43.0992 30.9135 42.4771 30.9135C41.855 30.9135 41.3507 31.4178 41.3507 32.04C41.3507 32.6622 41.855 33.1665 42.4771 33.1665Z" fill="#000099"/>
<path d="M39.0041 33.1665C39.6263 33.1665 40.1306 32.6622 40.1306 32.04C40.1306 31.4178 39.6263 30.9135 39.0041 30.9135C38.382 30.9135 37.8777 31.4178 37.8777 32.04C37.8777 32.6622 38.382 33.1665 39.0041 33.1665Z" fill="#000099"/>
<path d="M35.5233 33.1665C36.1454 33.1665 36.6497 32.6622 36.6497 32.04C36.6497 31.4178 36.1454 30.9135 35.5233 30.9135C34.9011 30.9135 34.3968 31.4178 34.3968 32.04C34.3968 32.6622 34.9011 33.1665 35.5233 33.1665Z" fill="#000099"/>
<path d="M32.0424 33.1665C32.6645 33.1665 33.1688 32.6622 33.1688 32.04C33.1688 31.4178 32.6645 30.9135 32.0424 30.9135C31.4203 30.9135 30.9159 31.4178 30.9159 32.04C30.9159 32.6622 31.4203 33.1665 32.0424 33.1665Z" fill="#000099"/>
<path d="M45.958 36.6435C46.5801 36.6435 47.0844 36.1391 47.0844 35.5169C47.0844 34.8948 46.5801 34.3904 45.958 34.3904C45.3359 34.3904 44.8315 34.8948 44.8315 35.5169C44.8315 36.1391 45.3359 36.6435 45.958 36.6435Z" fill="#000099"/>
<path d="M45.958 40.1283C46.5801 40.1283 47.0844 39.6239 47.0844 39.0018C47.0844 38.3796 46.5801 37.8752 45.958 37.8752C45.3359 37.8752 44.8315 38.3796 44.8315 39.0018C44.8315 39.6239 45.3359 40.1283 45.958 40.1283Z" fill="#000099"/>
<path d="M45.958 43.6052C46.5801 43.6052 47.0844 43.1009 47.0844 42.4787C47.0844 41.8565 46.5801 41.3522 45.958 41.3522C45.3359 41.3522 44.8315 41.8565 44.8315 42.4787C44.8315 43.1009 45.3359 43.6052 45.958 43.6052Z" fill="#000099"/>
<path d="M45.958 47.0782C46.5801 47.0782 47.0844 46.5738 47.0844 45.9517C47.0844 45.3295 46.5801 44.8251 45.958 44.8251C45.3359 44.8251 44.8315 45.3295 44.8315 45.9517C44.8315 46.5738 45.3359 47.0782 45.958 47.0782Z" fill="#000099"/>
</svg>
