<svg width="16" height="16" viewBox="0 0 16 16" fill="none" xmlns="http://www.w3.org/2000/svg">
<path fill-rule="evenodd" clip-rule="evenodd" d="M12.1967 4.74203C12.4563 4.48246 12.4563 4.06161 12.1967 3.80203C11.9371 3.54246 11.5163 3.54246 11.2567 3.80203L8.00004 7.0587L4.74337 3.80203C4.4838 3.54246 4.06295 3.54246 3.80337 3.80203C3.5438 4.06161 3.5438 4.48246 3.80337 4.74203L7.06004 7.9987L3.80337 11.2554C3.5438 11.5149 3.5438 11.9358 3.80337 12.1954C4.06295 12.4549 4.4838 12.4549 4.74337 12.1954L8.00004 8.9387L11.2567 12.1954C11.5163 12.4549 11.9371 12.4549 12.1967 12.1954C12.4563 11.9358 12.4563 11.5149 12.1967 11.2554L8.94004 7.9987L12.1967 4.74203Z" fill="#7A85A0"/>
</svg>
