<svg width="24" height="24" viewBox="0 0 24 24" fill="none" xmlns="http://www.w3.org/2000/svg">
<path fill-rule="evenodd" clip-rule="evenodd" d="M18.8696 5.13335C18.5767 4.84046 18.1018 4.84046 17.809 5.13335L4.92963 18.0127C4.63674 18.3056 4.63674 18.7804 4.92963 19.0733C5.22252 19.3662 5.6974 19.3662 5.99029 19.0733L18.8696 6.19401C19.1625 5.90112 19.1625 5.42624 18.8696 5.13335Z" fill="#EFEFEF"/>
<path fill-rule="evenodd" clip-rule="evenodd" d="M6.48168 5.46094C6.48168 5.87515 6.81746 6.21094 7.23168 6.21094L17.7922 6.21094V16.7778C17.7922 17.192 18.128 17.5278 18.5422 17.5278C18.9565 17.5278 19.2922 17.192 19.2922 16.7778V5.46094C19.2922 5.04672 18.9565 4.71094 18.5422 4.71094L7.23168 4.71094C6.81746 4.71094 6.48168 5.04672 6.48168 5.46094Z" fill="#EFEFEF"/>
</svg>
