<svg width="24" height="24" viewBox="0 0 24 24" fill="none" xmlns="http://www.w3.org/2000/svg">
<path fill-rule="evenodd" clip-rule="evenodd" d="M18.3619 9.96967C18.6548 10.2626 18.6548 10.7374 18.3619 11.0303L12.5264 16.8658C12.2335 17.1587 11.7587 17.1587 11.4658 16.8658L5.63033 11.0303C5.33744 10.7374 5.33744 10.2626 5.63033 9.96967C5.92322 9.67678 6.3981 9.67678 6.69099 9.96967L11.9961 15.2748L17.3012 9.96967C17.5941 9.67678 18.069 9.67678 18.3619 9.96967Z" fill="#A97D0E"/>
<path fill-rule="evenodd" clip-rule="evenodd" d="M11.9922 2C12.4064 2 12.7422 2.33579 12.7422 2.75V15.25C12.7422 15.6642 12.4064 16 11.9922 16C11.578 16 11.2422 15.6642 11.2422 15.25L11.2422 2.75C11.2422 2.33579 11.578 2 11.9922 2Z" fill="#A97D0E"/>
<path fill-rule="evenodd" clip-rule="evenodd" d="M20 19.75C20 20.9926 18.9926 22 17.75 22L6.25 22C5.00736 22 4 20.9926 4 19.75L4 17.25C4 16.8358 4.33579 16.5 4.75 16.5C5.16421 16.5 5.5 16.8358 5.5 17.25L5.5 19.75C5.5 20.1642 5.83579 20.5 6.25 20.5L17.75 20.5C18.1642 20.5 18.5 20.1642 18.5 19.75V17.25C18.5 16.8358 18.8358 16.5 19.25 16.5C19.6642 16.5 20 16.8358 20 17.25V19.75Z" fill="#A97D0E"/>
</svg>
