<svg width="16" height="16" viewBox="0 0 16 16" fill="none" xmlns="http://www.w3.org/2000/svg">
<path fill-rule="evenodd" clip-rule="evenodd" d="M5.41507 6.90754C5.41507 5.47954 6.57227 4.32234 8.00027 4.32234C9.42756 4.32234 10.5846 5.47967 10.5846 6.90754C10.5846 8.33469 9.42742 9.4919 8.00027 9.4919C6.5724 9.4919 5.41507 8.33483 5.41507 6.90754ZM8.00027 5.32234C7.12456 5.32234 6.41507 6.03183 6.41507 6.90754C6.41507 7.78228 7.12442 8.4919 8.00027 8.4919C8.87514 8.4919 9.58463 7.78241 9.58463 6.90754C9.58463 6.03169 8.87501 5.32234 8.00027 5.32234Z" fill="#EFEFEF"/>
<path fill-rule="evenodd" clip-rule="evenodd" d="M7.99952 2.33612C5.44265 2.33612 3.36328 4.42764 3.36328 7.01603C3.36328 8.66013 4.34529 10.3309 5.49744 11.6281C6.06607 12.2684 6.65698 12.7956 7.14805 13.1589C7.39414 13.3409 7.60764 13.4762 7.77466 13.5634C7.90413 13.6311 7.97471 13.6532 7.99776 13.6604L7.99952 13.6609L8.00128 13.6604C8.02433 13.6532 8.09492 13.6311 8.22441 13.5634C8.39145 13.4762 8.60499 13.3409 8.85111 13.1589C9.34224 12.7956 9.93324 12.2683 10.502 11.6281C11.6543 10.3309 12.6364 8.6601 12.6364 7.01603C12.6364 4.42773 10.5565 2.33612 7.99952 2.33612ZM2.36328 7.01603C2.36328 3.88345 4.88231 1.33612 7.99952 1.33612C11.1166 1.33612 13.6364 3.88336 13.6364 7.01603C13.6364 9.02584 12.4605 10.929 11.2496 12.2922C10.6367 12.9822 9.99475 13.5568 9.44576 13.9629C9.17182 14.1655 8.9135 14.3317 8.68739 14.4498C8.48557 14.5552 8.23387 14.6639 7.99952 14.6639C7.76515 14.6639 7.51346 14.5552 7.31165 14.4498C7.08556 14.3317 6.82726 14.1655 6.55335 13.9628C6.00443 13.5568 5.36258 12.9822 4.74976 12.2922C3.53898 10.929 2.36328 9.02581 2.36328 7.01603Z" fill="#EFEFEF"/>
</svg>
