<svg width="24" height="24" viewBox="0 0 24 24" fill="none" xmlns="http://www.w3.org/2000/svg">
<path fill-rule="evenodd" clip-rule="evenodd" d="M17.75 4.5C16.7835 4.5 16 5.2835 16 6.25C16 7.2165 16.7835 8 17.75 8C18.7165 8 19.5 7.2165 19.5 6.25C19.5 5.2835 18.7165 4.5 17.75 4.5ZM14.5 6.25C14.5 4.45507 15.9551 3 17.75 3C19.5449 3 21 4.45507 21 6.25C21 8.04493 19.5449 9.5 17.75 9.5C15.9551 9.5 14.5 8.04493 14.5 6.25Z" fill="#A97D0E"/>
<path fill-rule="evenodd" clip-rule="evenodd" d="M17.75 16C16.7835 16 16 16.7835 16 17.75C16 18.7165 16.7835 19.5 17.75 19.5C18.7165 19.5 19.5 18.7165 19.5 17.75C19.5 16.7835 18.7165 16 17.75 16ZM14.5 17.75C14.5 15.9551 15.9551 14.5 17.75 14.5C19.5449 14.5 21 15.9551 21 17.75C21 19.5449 19.5449 21 17.75 21C15.9551 21 14.5 19.5449 14.5 17.75Z" fill="#A97D0E"/>
<path fill-rule="evenodd" clip-rule="evenodd" d="M6.25 10.25C5.2835 10.25 4.5 11.0335 4.5 12C4.5 12.9665 5.2835 13.75 6.25 13.75C7.2165 13.75 8 12.9665 8 12C8 11.0335 7.2165 10.25 6.25 10.25ZM3 12C3 10.2051 4.45507 8.75 6.25 8.75C8.04493 8.75 9.5 10.2051 9.5 12C9.5 13.7949 8.04493 15.25 6.25 15.25C4.45507 15.25 3 13.7949 3 12Z" fill="#A97D0E"/>
<path fill-rule="evenodd" clip-rule="evenodd" d="M15.4641 17.75L8.53589 13.75L9.28589 12.451L16.2141 16.451L15.4641 17.75Z" fill="#A97D0E"/>
<path fill-rule="evenodd" clip-rule="evenodd" d="M15.4641 8L8.53589 12L7.78589 10.701L14.7141 6.70096L15.4641 8Z" fill="#A97D0E"/>
</svg>
