<svg width="20" height="20" viewBox="0 0 20 20" fill="none" xmlns="http://www.w3.org/2000/svg">
<path fill-rule="evenodd" clip-rule="evenodd" d="M10.0001 2.92114C6.09026 2.92114 2.92072 6.09068 2.92072 10.0005C2.92072 13.6512 5.68456 16.6572 9.23358 17.0389C9.57678 17.0758 9.82508 17.384 9.78816 17.7272C9.75125 18.0704 9.44311 18.3187 9.09991 18.2817C4.9228 17.8325 1.67072 14.2967 1.67072 10.0005C1.67072 5.40033 5.3999 1.67114 10.0001 1.67114C14.2965 1.67114 17.8325 4.92359 18.2814 9.10104C18.3183 9.44424 18.07 9.75236 17.7268 9.78924C17.3836 9.82612 17.0754 9.5778 17.0385 9.2346C16.6571 5.6853 13.651 2.92114 10.0001 2.92114Z" fill="#EFEFEF"/>
<path fill-rule="evenodd" clip-rule="evenodd" d="M7.76215 11.3546L12.4747 6.64185C12.7188 6.39777 13.1145 6.39776 13.3586 6.64183C13.6027 6.88591 13.6027 7.28163 13.3586 7.52572L8.64605 12.2385C8.40198 12.4826 8.00625 12.4826 7.76217 12.2385C7.51809 11.9944 7.51808 11.5987 7.76215 11.3546Z" fill="#EFEFEF"/>
<path fill-rule="evenodd" clip-rule="evenodd" d="M12.1622 7.8382V12.1415C12.1622 12.4866 11.8824 12.7665 11.5372 12.7665C11.1921 12.7665 10.9122 12.4866 10.9122 12.1415V9.08824L7.85912 9.08833C7.51395 9.08834 7.23412 8.80853 7.2341 8.46335C7.23409 8.11817 7.51391 7.83834 7.85909 7.83833L12.1622 7.8382Z" fill="#EFEFEF"/>
<path fill-rule="evenodd" clip-rule="evenodd" d="M8.94407 11.0568V13.7508C8.94407 14.096 8.66425 14.3758 8.31907 14.3758C7.97389 14.3758 7.69407 14.096 7.69407 13.7508V12.3068H6.25012C5.90494 12.3068 5.62512 12.027 5.62512 11.6818C5.62512 11.3366 5.90494 11.0568 6.25012 11.0568H8.94407Z" fill="#EFEFEF"/>
<path fill-rule="evenodd" clip-rule="evenodd" d="M16.1743 11.91C16.0132 11.7802 15.7791 11.8059 15.6506 11.965L12.4228 15.962L12.4219 15.9631C12.4089 15.9791 12.4029 16.0015 12.4077 16.0243L12.6218 17.0229C12.6289 17.0563 12.6587 17.0809 12.6925 17.0809L13.7157 17.0814C13.7372 17.0813 13.7583 17.0716 13.7728 17.054L16.9999 13.0578C17.1293 12.8978 17.1046 12.6633 16.9452 12.5346L16.1743 11.91ZM14.6781 11.1797C15.2418 10.4815 16.2636 10.3754 16.96 10.9378L16.9607 10.9384L17.7304 11.562C18.428 12.1256 18.5349 13.1473 17.9724 13.8431L14.7446 17.8401L14.7438 17.8412C14.493 18.1503 14.1157 18.3314 13.7154 18.3314L12.6931 18.3309C12.07 18.331 11.5298 17.8952 11.3995 17.2847L11.1852 16.2847C11.1021 15.8946 11.1989 15.487 11.4506 15.1763L14.6781 11.1797Z" fill="#EFEFEF"/>
<path fill-rule="evenodd" clip-rule="evenodd" d="M13.8955 12.1603C14.1126 11.892 14.5061 11.8504 14.7745 12.0675L17.0964 13.9456C17.3647 14.1627 17.4063 14.5562 17.1892 14.8246C16.9722 15.093 16.5786 15.1346 16.3103 14.9175L13.9884 13.0393C13.72 12.8223 13.6784 12.4287 13.8955 12.1603Z" fill="#EFEFEF"/>
</svg>
