<svg width="20" height="20" viewBox="0 0 20 20" fill="none" xmlns="http://www.w3.org/2000/svg">
<path fill-rule="evenodd" clip-rule="evenodd" d="M8.74157 2.73575C8.89801 2.92906 8.92497 3.19672 8.81021 3.41734C8.40592 4.19461 8.20403 5.08786 8.20403 6.05821C8.20403 9.22716 10.773 11.7961 13.9419 11.7961C14.9016 11.7961 15.806 11.5771 16.5885 11.1713C16.8088 11.057 17.076 11.084 17.269 11.24C17.4621 11.396 17.5446 11.6515 17.4791 11.891C16.5954 15.1234 13.6381 17.5001 10.1242 17.5001C5.91346 17.5001 2.5 14.0867 2.5 9.87595C2.5 6.3692 4.86697 3.4169 8.08927 2.52651C8.32897 2.46028 8.58513 2.54245 8.74157 2.73575ZM7.17663 4.22253C5.1398 5.28671 3.75 7.41959 3.75 9.87595C3.75 13.3963 6.60382 16.2501 10.1242 16.2501C12.5855 16.2501 14.7221 14.8547 15.7841 12.8111C15.1939 12.9665 14.5749 13.0461 13.9419 13.0461C10.0826 13.0461 6.95403 9.91752 6.95403 6.05821C6.95403 5.42761 7.0265 4.81187 7.17663 4.22253Z" fill="#EFEFEF"/>
</svg>
