<svg width="20" height="20" viewBox="0 0 20 20" fill="none" xmlns="http://www.w3.org/2000/svg">
<path fill-rule="evenodd" clip-rule="evenodd" d="M15.9194 6.89431C15.7308 6.32488 15.1046 6.02564 14.5586 6.23104L13.0436 6.80092C12.7279 6.91969 12.4501 7.12143 12.2394 7.38488L9.90958 10.2985C9.76628 10.4777 9.77203 10.7338 9.92323 10.9064C10.1158 11.1262 10.4595 11.121 10.6452 10.8954L12.7396 8.35223C12.9289 8.12234 13.2542 8.05796 13.5168 8.1984C13.7794 8.33883 13.9065 8.64506 13.8204 8.93016L13.2574 10.7952C13.2102 10.9517 13.2261 11.1204 13.3019 11.2653L16.2053 16.8197C16.3195 17.0381 16.5804 17.1346 16.8092 17.0431C17.0635 16.9414 17.1813 16.648 17.0681 16.3987L15.1447 12.1617C15.0885 12.038 15.0742 11.8992 15.104 11.7666L15.9711 7.90062C16.0452 7.57061 16.0268 7.2186 15.9194 6.89431ZM14.1185 5.06108C15.3443 4.59995 16.6993 5.27358 17.106 6.50125C17.2836 7.0374 17.3152 7.61978 17.1908 8.17421L16.3695 11.8358L18.2064 15.882C18.6142 16.7803 18.1895 17.8373 17.2735 18.2037C16.4491 18.5334 15.5089 18.1856 15.0976 17.3988L12.1941 11.8444C12.0913 11.6478 12.0252 11.4365 11.9968 11.2205L11.6101 11.6901C10.9342 12.5108 9.6836 12.5299 8.98297 11.7301C8.43279 11.102 8.41187 10.1699 8.93332 9.51781L11.2631 6.60423C11.6142 6.16514 12.0773 5.8289 12.6035 5.63096L14.1185 5.06108Z" fill="#EFEFEF"/>
<path fill-rule="evenodd" clip-rule="evenodd" d="M16.114 2.92188C15.575 2.92188 15.138 3.35888 15.138 3.89795C15.138 4.43702 15.575 4.87402 16.114 4.87402C16.6531 4.87402 17.0901 4.43702 17.0901 3.89795C17.0901 3.35888 16.6531 2.92188 16.114 2.92188ZM13.888 3.89795C13.888 2.66852 14.8846 1.67188 16.114 1.67188C17.3435 1.67188 18.3401 2.66852 18.3401 3.89795C18.3401 5.12738 17.3435 6.12402 16.114 6.12402C14.8846 6.12402 13.888 5.12738 13.888 3.89795Z" fill="#EFEFEF"/>
<path fill-rule="evenodd" clip-rule="evenodd" d="M13.2703 12.3759C13.5531 12.5739 13.6219 12.9636 13.4239 13.2464L11.3414 16.2213C11.1604 16.4799 11.2366 16.8378 11.5073 17.0002C11.7506 17.1461 12.0653 17.0807 12.2302 16.8498L13.6041 14.9263C13.8048 14.6454 14.1951 14.5804 14.476 14.781C14.7569 14.9816 14.8219 15.372 14.6213 15.6529L13.2474 17.5764C12.7036 18.3376 11.6663 18.5533 10.8642 18.072C9.9719 17.5367 9.72068 16.357 10.3174 15.5045L12.3999 12.5296C12.5978 12.2468 12.9875 12.178 13.2703 12.3759Z" fill="#EFEFEF"/>
<path fill-rule="evenodd" clip-rule="evenodd" d="M3.33505 18.2855C3.16916 18.2856 3.01004 18.2197 2.89275 18.1024L2.0847 17.2944C1.35246 16.5621 1.35247 15.3749 2.08471 14.6427L4.48364 12.2438C5.21587 11.5116 6.40305 11.5116 7.13527 12.2438L7.49606 12.6046L8.87225 11.2253C9.11605 10.9809 9.51178 10.9804 9.75614 11.2242C10.0005 11.468 10.0009 11.8638 9.75715 12.1081L3.77714 18.1019C3.65997 18.2193 3.50093 18.2854 3.33505 18.2855ZM6.61319 13.4895L6.25139 13.1277C6.00732 12.8836 5.61159 12.8836 5.36751 13.1277L2.96859 15.5266C2.7245 15.7707 2.7245 16.1664 2.96858 16.4105L3.33418 16.7761L6.61319 13.4895Z" fill="#EFEFEF"/>
</svg>
