<svg width="8" height="8" viewBox="0 0 8 8" fill="none" xmlns="http://www.w3.org/2000/svg">
<path d="M0.17604 0.174776C0.410645 -0.0593543 0.790928 -0.0593302 1.02555 0.174776L3.99953 3.14595L6.9742 0.175476C7.20886 -0.0588912 7.58975 -0.059591 7.82441 0.174776C8.05903 0.409146 8.05836 0.789229 7.82371 1.02358L4.84903 3.99406L7.82371 6.96454C8.05827 7.19881 8.05878 7.57896 7.82441 7.81335C7.58985 8.04762 7.20889 8.04812 6.9742 7.81405L3.99883 4.84287L1.02555 7.81335C0.790878 8.04758 0.410656 8.04767 0.17604 7.81335C-0.058432 7.57907 -0.0582902 7.1996 0.17604 6.96524L3.14932 3.99476L0.17604 1.02428C-0.0586197 0.789917 -0.0586195 0.409143 0.17604 0.174776Z" fill="#A97D0E"/>
</svg>
