<svg width="45" height="45" viewBox="0 0 45 45" fill="none" xmlns="http://www.w3.org/2000/svg">
<path fill-rule="evenodd" clip-rule="evenodd" d="M22.5 31.875C27.6776 31.875 31.875 27.6776 31.875 22.5C31.875 17.3223 27.6776 13.125 22.5 13.125C17.3224 13.125 13.125 17.3223 13.125 22.5C13.125 27.6776 17.3224 31.875 22.5 31.875ZM27.3829 18.8604C27.7262 18.5172 27.726 17.9607 27.3827 17.6175C27.0394 17.2743 26.4829 17.2744 26.1398 17.6177L24.801 18.957H20.3693C19.884 18.957 19.4905 19.3503 19.4905 19.8358C19.4905 20.3212 19.884 20.7148 20.3693 20.7148H23.044L20.5395 23.2198L18.2387 23.2196C17.7533 23.2196 17.3598 23.613 17.3597 24.0984C17.3597 24.5838 17.7532 24.9774 18.2386 24.9774L20.0243 24.9776L20.0231 26.7613C20.0228 27.2467 20.4161 27.6405 20.9014 27.6406C21.3868 27.641 21.7806 27.2478 21.781 26.7624L21.7823 24.4629L24.2845 21.96V24.6298C24.2845 25.1152 24.678 25.5088 25.1635 25.5088C25.6489 25.5088 26.0423 25.1152 26.0423 24.6298V20.2016L27.3829 18.8604Z" fill="#EFEFEF"/>
<path fill-rule="evenodd" clip-rule="evenodd" d="M26.4775 6.08003C24.2807 3.88334 20.7192 3.88334 18.5225 6.08003L6.59006 18.0125C4.39334 20.2091 4.39334 23.7707 6.59006 25.9674L18.5225 37.8999C20.7192 40.0965 24.2807 40.0965 26.4775 37.8999L38.4098 25.9674C40.6065 23.7707 40.6065 20.2091 38.4098 18.0125L26.4775 6.08003ZM28.4661 4.0913C25.1712 0.796254 19.8287 0.796254 16.5337 4.0913L4.60132 16.0237C1.30626 19.3189 1.30626 24.6611 4.60132 27.9562L16.5337 39.8886C19.8287 43.1837 25.1712 43.1837 28.4661 39.8886L40.3986 27.9562C43.6935 24.6611 43.6935 19.3189 40.3986 16.0237L28.4661 4.0913Z" fill="#EFEFEF"/>
</svg>
