<svg width="45" height="45" viewBox="0 0 45 45" fill="none" xmlns="http://www.w3.org/2000/svg">
<path fill-rule="evenodd" clip-rule="evenodd" d="M24.4998 7.38622C23.3892 6.28268 21.5951 6.288 20.4912 7.39823L20.489 7.40035L19.1355 8.75576C18.079 9.80228 16.6516 10.3948 15.159 10.3948L13.2307 10.3948C11.6646 10.3963 10.3965 11.665 10.3965 13.2298V15.1517C10.3965 16.646 9.804 18.0741 8.75437 19.1313L8.75153 19.1341L7.42464 20.4628C7.41186 20.4768 7.3988 20.4905 7.38546 20.5039C6.28288 21.614 6.28901 23.4068 7.39933 24.5096L7.40342 24.5136L8.7532 25.8653C9.80392 26.921 10.3965 28.3498 10.3965 29.8423V31.7754C10.3965 33.3406 11.6644 34.6085 13.2296 34.6085H15.1576C16.6461 34.611 18.0767 35.1994 19.1341 36.2518L19.1365 36.2542L20.5015 37.6192L20.5031 37.6209C21.6133 38.7222 23.4065 38.7161 24.5094 37.6057L24.5134 37.6016L25.8651 36.2518C26.9213 35.2006 28.3521 34.6085 29.844 34.6085H31.7771C33.3423 34.6085 34.6102 33.3406 34.6102 31.7754V29.846C34.6102 28.3552 35.1998 26.9259 36.2516 25.869L36.254 25.8667L37.6199 24.5007M37.6199 24.5007C38.7224 23.3909 38.7178 21.596 37.6068 20.4914L37.604 20.4885L36.254 19.1385L36.2505 19.135C35.1995 18.0765 34.6102 16.646 34.6102 15.1554V13.2298C34.6102 11.6631 33.3409 10.3948 31.7752 10.3948H29.8477C28.3565 10.3948 26.928 9.8051 25.87 8.75457L25.8665 8.75104L24.5437 7.42828C24.5288 7.41458 24.5141 7.40056 24.4998 7.38622L24.4979 7.38435L25.4921 6.3898L24.4998 7.38622M25.7799 6.07004L25.4921 6.3898L25.1715 6.74601M26.4574 5.36667C24.2439 3.19368 20.6889 3.21183 18.498 5.41392L17.1537 6.76004C16.6205 7.28699 15.904 7.5823 15.159 7.5823L13.2296 7.5823C10.1122 7.5848 7.58397 10.1111 7.58397 13.2298V15.1517C7.58397 15.8993 7.28816 16.6156 6.75982 17.1483L5.39711 18.5129C5.38004 18.53 5.36342 18.5475 5.34727 18.5654C3.1936 20.7801 3.2196 24.3196 5.41498 26.5027L5.41736 26.505L6.75975 27.8493C7.2872 28.3797 7.58397 29.0965 7.58397 29.8423V31.7754C7.58397 34.8939 10.1111 37.4211 13.2296 37.4211L15.1529 37.421C15.902 37.4228 16.6207 37.7189 17.1491 38.2442L18.5184 39.6135L18.5223 39.6175C20.7338 41.8115 24.3049 41.7997 26.5022 39.5903L26.5048 39.5877L27.8491 38.2453C28.3791 37.7182 29.0974 37.4211 29.844 37.4211H31.7771C34.8956 37.4211 37.4227 34.8939 37.4227 31.7754V29.846C37.4227 29.0987 37.7178 28.3834 38.244 27.8541L39.6143 26.4839C41.814 24.2716 41.8011 20.6974 39.5914 18.4985L39.5899 18.497L38.2462 17.1533L38.2446 17.1516C37.7179 16.6203 37.4227 15.9029 37.4227 15.1554V13.2298C37.4227 10.109 34.8933 7.5823 31.7752 7.5823H29.8477C29.1008 7.5823 28.385 7.28754 27.8531 6.76022L27.8517 6.75878L26.5052 5.41231C26.4896 5.39672 26.4737 5.3815 26.4574 5.36667ZM25.5255 6.35621L25.4921 6.3898L25.5241 6.35781" fill="#EFEFEF"/>
<path fill-rule="evenodd" clip-rule="evenodd" d="M28.3162 16.69C28.8654 17.2391 28.8654 18.1295 28.3162 18.6787L18.6787 28.3162C18.1296 28.8654 17.2392 28.8654 16.69 28.3162C16.1408 27.767 16.1408 26.8766 16.69 26.3275L26.3275 16.69C26.8767 16.1408 27.7671 16.1408 28.3162 16.69Z" fill="#EFEFEF"/>
<path fill-rule="evenodd" clip-rule="evenodd" d="M25.3043 27.1875C25.3043 26.152 26.1438 25.3125 27.1793 25.3125H27.1962C28.2317 25.3125 29.0712 26.152 29.0712 27.1875C29.0712 28.223 28.2317 29.0625 27.1962 29.0625H27.1793C26.1438 29.0625 25.3043 28.223 25.3043 27.1875Z" fill="#EFEFEF"/>
<path fill-rule="evenodd" clip-rule="evenodd" d="M15.9293 17.8125C15.9293 16.777 16.7688 15.9375 17.8043 15.9375H17.8212C18.8567 15.9375 19.6962 16.777 19.6962 17.8125C19.6962 18.848 18.8567 19.6875 17.8212 19.6875H17.8043C16.7688 19.6875 15.9293 18.848 15.9293 17.8125Z" fill="#EFEFEF"/>
</svg>
