<svg width="44" height="44" viewBox="0 0 44 44" fill="none" xmlns="http://www.w3.org/2000/svg">
<path d="M32.3527 18.085C33.0695 18.085 33.6506 17.5053 33.6506 16.7901C33.6506 16.075 33.0695 15.4952 32.3527 15.4952C31.6359 15.4952 31.0547 16.075 31.0547 16.7901C31.0547 17.5053 31.6359 18.085 32.3527 18.085Z" fill="#EFEFEF"/>
<path d="M28.0294 13.7682C28.7463 13.7682 29.3274 13.1885 29.3274 12.4733C29.3274 11.7582 28.7463 11.1785 28.0294 11.1785C27.3126 11.1785 26.7315 11.7582 26.7315 12.4733C26.7315 13.1885 27.3126 13.7682 28.0294 13.7682Z" fill="#EFEFEF"/>
<path d="M32.3527 13.7682C33.0695 13.7682 33.6506 13.1885 33.6506 12.4733C33.6506 11.7582 33.0695 11.1785 32.3527 11.1785C31.6359 11.1785 31.0547 11.7582 31.0547 12.4733C31.0547 13.1885 31.6359 13.7682 32.3527 13.7682Z" fill="#EFEFEF"/>
<path d="M23.7028 13.7682C24.4197 13.7682 25.0008 13.1885 25.0008 12.4733C25.0008 11.7582 24.4197 11.1785 23.7028 11.1785C22.986 11.1785 22.4049 11.7582 22.4049 12.4733C22.4049 13.1885 22.986 13.7682 23.7028 13.7682Z" fill="#EFEFEF"/>
<path d="M36.3287 8.50746C36.8354 9.01302 36.8354 9.83169 36.3287 10.3389C35.8219 10.8461 35.0013 10.8444 34.4929 10.3389C33.9845 9.83332 33.9862 9.01465 34.4929 8.50746C34.9997 8.00028 35.8203 8.00191 36.3287 8.50746Z" fill="#EFEFEF"/>
<path d="M39.3877 5.45607C39.8944 5.96163 39.8944 6.7803 39.3877 7.28749C38.8809 7.79468 38.0603 7.79304 37.5519 7.28749C37.0436 6.78193 37.0452 5.96326 37.5519 5.45607C38.0587 4.95052 38.8793 4.95052 39.3877 5.45607Z" fill="#EFEFEF"/>
<path d="M19.3746 13.7682C20.0914 13.7682 20.6725 13.1885 20.6725 12.4733C20.6725 11.7582 20.0914 11.1785 19.3746 11.1785C18.6577 11.1785 18.0766 11.7582 18.0766 12.4733C18.0766 13.1885 18.6577 13.7682 19.3746 13.7682Z" fill="#EFEFEF"/>
<path d="M15.0511 13.7682C15.7679 13.7682 16.349 13.1885 16.349 12.4733C16.349 11.7582 15.7679 11.1785 15.0511 11.1785C14.3342 11.1785 13.7531 11.7582 13.7531 12.4733C13.7531 13.1885 14.3342 13.7682 15.0511 13.7682Z" fill="#EFEFEF"/>
<path d="M32.3527 22.4016C33.0695 22.4016 33.6506 21.8219 33.6506 21.1068C33.6506 20.3916 33.0695 19.8119 32.3527 19.8119C31.6359 19.8119 31.0547 20.3916 31.0547 21.1068C31.0547 21.8219 31.6359 22.4016 32.3527 22.4016Z" fill="#EFEFEF"/>
<path d="M15.7916 34.6048C16.5085 34.6048 17.0896 34.025 17.0896 33.3099C17.0896 32.5948 16.5085 32.015 15.7916 32.015C15.0748 32.015 14.4937 32.5948 14.4937 33.3099C14.4937 34.025 15.0748 34.6048 15.7916 34.6048Z" fill="#EFEFEF"/>
<path d="M11.4683 30.2881C12.1852 30.2881 12.7663 29.7084 12.7663 28.9932C12.7663 28.2781 12.1852 27.6984 11.4683 27.6984C10.7515 27.6984 10.1704 28.2781 10.1704 28.9932C10.1704 29.7084 10.7515 30.2881 11.4683 30.2881Z" fill="#EFEFEF"/>
<path d="M15.7916 30.2881C16.5085 30.2881 17.0896 29.7084 17.0896 28.9932C17.0896 28.2781 16.5085 27.6984 15.7916 27.6984C15.0748 27.6984 14.4937 28.2781 14.4937 28.9932C14.4937 29.7084 15.0748 30.2881 15.7916 30.2881Z" fill="#EFEFEF"/>
<path d="M7.14004 30.2881C7.85688 30.2881 8.43799 29.7084 8.43799 28.9932C8.43799 28.2781 7.85688 27.6984 7.14004 27.6984C6.42321 27.6984 5.8421 28.2781 5.8421 28.9932C5.8421 29.7084 6.42321 30.2881 7.14004 30.2881Z" fill="#EFEFEF"/>
<path d="M15.7916 38.9215C16.5085 38.9215 17.0896 38.3418 17.0896 37.6267C17.0896 36.9115 16.5085 36.3318 15.7916 36.3318C15.0748 36.3318 14.4937 36.9115 14.4937 37.6267C14.4937 38.3418 15.0748 38.9215 15.7916 38.9215Z" fill="#EFEFEF"/>
<path d="M32.3527 26.715C33.0695 26.715 33.6506 26.1353 33.6506 25.4201C33.6506 24.705 33.0695 24.1252 32.3527 24.1252C31.6359 24.1252 31.0547 24.705 31.0547 25.4201C31.0547 26.1353 31.6359 26.715 32.3527 26.715Z" fill="#EFEFEF"/>
<path d="M32.3527 28.442C33.0703 28.442 33.6506 29.021 33.6506 29.7369C33.6506 30.4528 33.0703 31.0318 32.3527 31.0318C31.6351 31.0318 31.0547 30.4528 31.0547 29.7369C31.0547 29.021 31.6351 28.442 32.3527 28.442Z" fill="#EFEFEF"/>
<path d="M21.9081 24.1866C22.6249 24.1866 23.206 23.6068 23.206 22.8917C23.206 22.1765 22.6249 21.5968 21.9081 21.5968C21.1912 21.5968 20.6101 22.1765 20.6101 22.8917C20.6101 23.6068 21.1912 24.1866 21.9081 24.1866Z" fill="#EFEFEF"/>
<path d="M25.8875 18.9259C26.3942 19.4315 26.3942 20.2502 25.8875 20.7573C25.3807 21.2645 24.5601 21.2629 24.0517 20.7573C23.5433 20.2518 23.5449 19.4331 24.0517 18.9259C24.5585 18.4187 25.3791 18.4204 25.8875 18.9259Z" fill="#EFEFEF"/>
<path d="M28.944 15.8717C29.4508 16.3773 29.4508 17.196 28.944 17.7031C28.4373 18.2103 27.6167 18.2087 27.1083 17.7031C26.6015 17.1976 26.6015 16.3789 27.1083 15.8717C27.615 15.3645 28.4356 15.3662 28.944 15.8717Z" fill="#EFEFEF"/>
<path d="M19.7675 25.0274C20.2743 25.5329 20.2743 26.3516 19.7675 26.8588C19.2608 27.366 18.4402 27.3643 17.9318 26.8588C17.4234 26.3532 17.425 25.5345 17.9318 25.0274C18.4385 24.5202 19.2591 24.5218 19.7675 25.0274Z" fill="#EFEFEF"/>
</svg>
