<svg width="45" height="45" viewBox="0 0 45 45" fill="none" xmlns="http://www.w3.org/2000/svg">
<path fill-rule="evenodd" clip-rule="evenodd" d="M10.7812 9.84375C10.7812 7.5138 12.67 5.625 15 5.625H30C32.3299 5.625 34.2187 7.5138 34.2187 9.84375V37.5H31.4062V9.84375C31.4062 9.0671 30.7766 8.4375 30 8.4375H15C14.2233 8.4375 13.5937 9.0671 13.5937 9.84375V37.5H10.7812V9.84375Z" fill="#EFEFEF"/>
<path fill-rule="evenodd" clip-rule="evenodd" d="M5.15623 19.2187C5.15623 16.8888 7.04503 15 9.37498 15H12.1875V17.8125H9.37498C8.59833 17.8125 7.96873 18.4421 7.96873 19.2187V37.5H5.15623V19.2187Z" fill="#EFEFEF"/>
<path fill-rule="evenodd" clip-rule="evenodd" d="M39.8437 19.2187C39.8437 16.8888 37.9549 15 35.625 15H32.8125V17.8125H35.625C36.4016 17.8125 37.0312 18.4421 37.0312 19.2187V37.5H39.8437V19.2187Z" fill="#EFEFEF"/>
<path fill-rule="evenodd" clip-rule="evenodd" d="M3.74998 37.9688C3.74998 37.1921 4.37958 36.5625 5.15623 36.5625H39.8437C40.6204 36.5625 41.25 37.1921 41.25 37.9688C41.25 38.7454 40.6204 39.375 39.8437 39.375H5.15623C4.37958 39.375 3.74998 38.7454 3.74998 37.9688Z" fill="#EFEFEF"/>
<path fill-rule="evenodd" clip-rule="evenodd" d="M16.875 26.25C16.875 25.4733 17.5046 24.8437 18.2812 24.8437H26.7187C27.4954 24.8437 28.125 25.4733 28.125 26.25V37.5H25.3125V27.6562H19.6875V37.5H16.875V26.25Z" fill="#EFEFEF"/>
<path d="M20.625 14.0625C20.625 14.8391 19.9954 15.4688 19.2187 15.4688C18.4421 15.4688 17.8125 14.8391 17.8125 14.0625C17.8125 13.2858 18.4421 12.6562 19.2187 12.6562C19.9954 12.6562 20.625 13.2858 20.625 14.0625Z" fill="#EFEFEF"/>
<path d="M20.625 19.6875C20.625 20.4641 19.9954 21.0938 19.2187 21.0938C18.4421 21.0938 17.8125 20.4641 17.8125 19.6875C17.8125 18.9108 18.4421 18.2812 19.2187 18.2812C19.9954 18.2812 20.625 18.9108 20.625 19.6875Z" fill="#EFEFEF"/>
<path d="M27.1875 19.6875C27.1875 20.4641 26.5579 21.0938 25.7812 21.0938C25.0046 21.0938 24.375 20.4641 24.375 19.6875C24.375 18.9108 25.0046 18.2812 25.7812 18.2812C26.5579 18.2812 27.1875 18.9108 27.1875 19.6875Z" fill="#EFEFEF"/>
<path d="M27.1875 14.0625C27.1875 14.8391 26.5579 15.4688 25.7812 15.4688C25.0046 15.4688 24.375 14.8391 24.375 14.0625C24.375 13.2858 25.0046 12.6562 25.7812 12.6562C26.5579 12.6562 27.1875 13.2858 27.1875 14.0625Z" fill="#EFEFEF"/>
</svg>
